<svg id="Actual_Colors" data-name="Actual Colors" xmlns="http://www.w3.org/2000/svg" viewBox="0 0 100 60"><defs><style>.cls-1{fill:#fff;}</style></defs><title>Xbox_Icons_All</title><path class="cls-1" d="M78.37,57.74H21.67l-.1,0a2.7,2.7,0,0,1-2.21-2.15,1.13,1.13,0,0,0-.08-.19V4.13a1.66,1.66,0,0,0,.08-.21,2.68,2.68,0,0,1,2.05-2.09l.29-.08H78.33l.19.05a2.69,2.69,0,0,1,2.12,2c0,.11.05.22.08.33V55.4a4.66,4.66,0,0,1-.11.46,2.67,2.67,0,0,1-1.94,1.81ZM22.95,54.1l.07,0H77.08V5.4l-.07,0H23V54.1Z"/><path class="cls-1" d="M73.49,50.5H26.56V20.73h8.12c0-.62,0-1.21,0-1.81s0-1.18,0-1.78V15.31c.23,0,.45,0,.67,0h4.74V9.93c.18,0,19.39-.07,19.87,0,0,.35,0,.71,0,1.07s0,.72,0,1.08V15.3h5.41v5.41c.32,0,.62,0,.92,0h7.21ZM44.61,38.79v8.1h1.81v-5.4q0-.68,0-1.37c0-.44,0-.89,0-1.33a25.61,25.61,0,0,1,2.7,0v8.08h1.8V38.81a24.39,24.39,0,0,1,2.71,0v.75q0,3.53,0,7.06c0,.09,0,.18,0,.26a11.08,11.08,0,0,0,1.79,0V38.8a24.52,24.52,0,0,1,2.71,0v8.08H60V38.8a24.33,24.33,0,0,1,2.72,0v8.08h1.79V42c0-.54,0-1.08,0-1.63s0-1.08,0-1.61a22.86,22.86,0,0,1,2.72,0v8.07h2.67c0-.32,0-22.38,0-22.56H61.76V18.91H56.34v-5.4H43.7v5.4H39.63c-.44,0-.89,0-1.35,0v5.42h-8.1V46.89h2.69V40.58c0-.3,0-.59,0-.89s0-.6,0-.89a21.93,21.93,0,0,1,2.72,0v8.07h1.79V42c0-.54,0-1.08,0-1.63s0-1.08,0-1.62H40.1v4.06q0,1,0,2c0,.68,0,1.35,0,2h1.8v-8.1Z"/></svg>