<svg id="Actual_Colors" data-name="Actual Colors" xmlns="http://www.w3.org/2000/svg" viewBox="0 0 100 60"><defs><style>.cls-1{fill:#fff;}</style></defs><title>Xbox_Icons_All</title><path class="cls-1" d="M14.26,15H85.77l.12,0A3.61,3.61,0,0,1,89,18.55q0,7.81,0,15.62a3.27,3.27,0,0,1-.5,1.76,3.55,3.55,0,0,1-3.1,1.77c-.76,0-1.52,0-2.28,0a.5.5,0,0,0-.4.16l-6.29,6.3a2.73,2.73,0,0,1-1,.63,3.33,3.33,0,0,1-1.2.18H25.71a3,3,0,0,1-2.22-.92c-2.06-2.08-4.13-4.14-6.19-6.21A.43.43,0,0,0,17,37.7H14.71a4.45,4.45,0,0,1-.54,0,3.62,3.62,0,0,1-3.09-2.95,1.51,1.51,0,0,0-.08-.24q0-8.12,0-16.23a1.28,1.28,0,0,0,.08-.22,3.62,3.62,0,0,1,2.83-2.93Zm71.11,3.65H14.68V34.06H17.5a3.18,3.18,0,0,1,.54,0,2.78,2.78,0,0,1,1.5.82l6.21,6.22a.51.51,0,0,0,.4.16H73.89a.51.51,0,0,0,.4-.16l6.24-6.25a2.71,2.71,0,0,1,2-.84h2.81Z"/><path class="cls-1" d="M79,25v3.61H21c0-.16-.06-3.31,0-3.61Z"/></svg>