<svg id="Actual_Colors" data-name="Actual Colors" xmlns="http://www.w3.org/2000/svg" viewBox="0 0 100 60"><defs><style>.cls-1{fill:#fff;}</style></defs><title>Xbox_Icons_All</title><path class="cls-1" d="M49.05,7h1.89L51,7a22.31,22.31,0,0,1,2.77.29,22.62,22.62,0,0,1,6.33,2A23,23,0,0,1,73,31a22.31,22.31,0,0,1-.7,4.73A22.87,22.87,0,0,1,66,46.52,22.93,22.93,0,0,1,49,53a22.17,22.17,0,0,1-4.41-.62A23.11,23.11,0,0,1,28.06,36.93a22.48,22.48,0,0,1-1-5.42c0-.19,0-.38,0-.57V29.05A.43.43,0,0,0,27,29a21.92,21.92,0,0,1,.53-4A23.1,23.1,0,0,1,43.07,8.06a22.47,22.47,0,0,1,5.42-1ZM50,48.61A18.61,18.61,0,1,0,31.38,29.86,18.64,18.64,0,0,0,50,48.61Z"/><path class="cls-1" d="M36.86,30A13.14,13.14,0,1,1,49.7,43.14,13.14,13.14,0,0,1,36.86,30Zm4.39,0A8.76,8.76,0,1,0,50,21.24,8.77,8.77,0,0,0,41.24,30Z"/></svg>