<svg id="Actual_Colors" data-name="Actual Colors" xmlns="http://www.w3.org/2000/svg" viewBox="0 0 100 60"><defs><style>.cls-1{fill:#fff;}</style></defs><title>Xbox_Icons_All</title><path class="cls-1" d="M1.5,31.19q0-1.19,0-2.38a5.79,5.79,0,0,0,.09-.58A26.8,26.8,0,0,1,4.36,18,26.94,26.94,0,0,1,27,3.09l.25,0H72.78l.17,0a27.92,27.92,0,0,1,3.56.42,26.47,26.47,0,0,1,7.13,2.4,27.1,27.1,0,0,1,13.5,15.54,25.12,25.12,0,0,1,1.36,7.78,29.19,29.19,0,0,1-.17,4.18,27.36,27.36,0,0,1-1.27,5.4A27.12,27.12,0,0,1,83.66,54.09,26.53,26.53,0,0,1,73.1,56.91a.9.9,0,0,0-.17,0H27.16a1.21,1.21,0,0,0-.2,0,24.89,24.89,0,0,1-3.84-.49,27.07,27.07,0,0,1-19-15,26.55,26.55,0,0,1-2.49-9.65C1.58,31.59,1.53,31.39,1.5,31.19ZM50,7.39H28.22A22.07,22.07,0,0,0,21,8.64,22.66,22.66,0,0,0,5.86,29.54a22.65,22.65,0,0,0,2.3,10.39A22.53,22.53,0,0,0,18.65,50.37a21.92,21.92,0,0,0,9.76,2.25H71.18l1,0a20.86,20.86,0,0,0,3.26-.31,22.55,22.55,0,0,0,12.65-6.81,22.55,22.55,0,0,0,6-18.16,22,22,0,0,0-1-4.5,22.56,22.56,0,0,0-5.68-9A22.55,22.55,0,0,0,71.69,7.39Q60.87,7.37,50,7.39Z"/><path class="cls-1" d="M45.64,36.49A18.24,18.24,0,0,1,35.59,46.88a17.79,17.79,0,0,1-12,.8,18.33,18.33,0,0,1,.69-35.52,18.35,18.35,0,0,1,16.38,4.19,18.29,18.29,0,0,1,4.94,7.17h8.78A18.25,18.25,0,0,1,65.67,12.68a17.7,17.7,0,0,1,11.94,0A18.33,18.33,0,1,1,54.42,36.49Zm-3.22-8.65c0-.07,0-.14-.07-.2-.12-.41-.23-.83-.35-1.24a13.7,13.7,0,0,0-4-6.64A13.89,13.89,0,0,0,28.53,16a12.66,12.66,0,0,0-2.59.24,13.57,13.57,0,0,0-7.63,4.16,13.67,13.67,0,0,0-3.6,12.1,13.44,13.44,0,0,0,4,7.58,13.87,13.87,0,0,0,8,3.83,13.72,13.72,0,0,0,4.57-.19A14,14,0,0,0,41.48,35.2a26.17,26.17,0,0,0,.83-2.69l.1-.33H57.66L58,33.6a13.6,13.6,0,0,0,4,6.7,13.76,13.76,0,0,0,11.43,3.57,13.42,13.42,0,0,0,4.78-1.58A14.05,14.05,0,0,0,85.59,30a13,13,0,0,0-.23-2.49A14,14,0,0,0,70.16,16.08,13.39,13.39,0,0,0,65,17.66,13.91,13.91,0,0,0,58.93,24a16.47,16.47,0,0,0-1.05,3c-.07.27-.15.54-.23.82Z"/><path class="cls-1" d="M61.87,30a9.71,9.71,0,1,1,9.67,9.71A9.72,9.72,0,0,1,61.87,30Zm9.71,5.38A5.38,5.38,0,1,0,66.21,30,5.37,5.37,0,0,0,71.58,35.38Z"/><path class="cls-1" d="M28.47,39.72A9.71,9.71,0,1,1,38.18,30,9.72,9.72,0,0,1,28.47,39.72ZM33.86,30a5.38,5.38,0,1,0-5.37,5.36A5.39,5.39,0,0,0,33.86,30Z"/></svg>