<svg id="Actual_Colors" data-name="Actual Colors" xmlns="http://www.w3.org/2000/svg" viewBox="0 0 100 60"><defs><style>.cls-1{fill:#fff;}</style></defs><title>Xbox_Icons_All</title><path class="cls-1" d="M22,55.65Q22,30,22,4.31a1.63,1.63,0,0,0,.08-.21,2.6,2.6,0,0,1,2-2l.3-.07H75.69l.07,0A2.56,2.56,0,0,1,78,4.27a.79.79,0,0,0,0,.12V55.61c0,.12,0,.24-.07.36a2.59,2.59,0,0,1-2,2l-.3.08H24.39l-.28-.08a2.6,2.6,0,0,1-2-2C22.06,55.8,22,55.73,22,55.65ZM25.55,5.51c0,.3,0,48.8,0,48.95.52,0,48.78,0,48.93,0V5.51Z"/><path class="cls-1" d="M31.65,24.08v-.25q0-5.23,0-10.45a2.59,2.59,0,0,1,1.92-2.53,3.17,3.17,0,0,1,.81-.1H65.65a2.66,2.66,0,0,1,1.86.68,2.59,2.59,0,0,1,.87,1.87c0,.08,0,.15,0,.23q0,5.16,0,10.33v.26a6.1,6.1,0,0,1,3.54,2.8,5.73,5.73,0,0,1,.82,3.48,6.13,6.13,0,0,1-4.35,5.5v.22q0,3.32,0,6.63a.49.49,0,0,1-.16.38l-6,6a.49.49,0,0,1-.38.16H38.14a.49.49,0,0,1-.38-.16l-6-6a.49.49,0,0,1-.15-.39q0-3.31,0-6.61v-.26a6.09,6.09,0,0,1-3.43-2.6A5.68,5.68,0,0,1,27.28,30,6.13,6.13,0,0,1,31.65,24.08Zm33.23-9.82H35.15V27.35H33.51l-.44,0a2.62,2.62,0,0,0,.33,5.22h1.75v.3q0,4.19,0,8.37a.47.47,0,0,0,.15.37l3.93,3.93a.47.47,0,0,0,.37.15H60.46a.45.45,0,0,0,.35-.15l3.92-3.92a.52.52,0,0,0,.16-.4q0-4.19,0-8.37v-.29h1.7a3.2,3.2,0,0,0,.5,0A2.61,2.61,0,0,0,69,29a2.54,2.54,0,0,0-2.39-1.62c-.51,0-1,0-1.53,0h-.24Z"/><path class="cls-1" d="M50,37a7,7,0,1,1,7-7A7,7,0,0,1,50,37Zm0-3.5A3.5,3.5,0,1,0,46.52,30,3.5,3.5,0,0,0,50,33.48Z"/></svg>