<svg id="Actual_Colors" data-name="Actual Colors" xmlns="http://www.w3.org/2000/svg" viewBox="0 0 78 52"><defs><style>.cls-1{fill:#fff;}</style></defs><title>Xbox_Icons_All</title><path class="cls-1" d="M41.46,5.09,37.8,11.59c-6-.42-11.44,2.09-14,6.55s-1.73,10.17,2,14.76l-3.66,6.51a7.67,7.67,0,0,0,3.18,10.65h0a8.59,8.59,0,0,0,11.24-3.2l3.72-6.6c5.92.33,11.2-2.18,13.67-6.57s1.75-10-1.78-14.55l3.72-6.6A7.7,7.7,0,0,0,52.41,2,8.18,8.18,0,0,0,41.46,5.09ZM33.95,45.51a5.48,5.48,0,0,1-7.17,2h0a4.86,4.86,0,0,1-2-6.75L28,35.15a20,20,0,0,0,3.65,2.57l.23.13.28.15,0,0,.07,0a21.1,21.1,0,0,0,4.9,1.81ZM51.33,32.34c-2,3.63-6.7,5.59-11.87,5a17.34,17.34,0,0,1-5.87-1.81,16.86,16.86,0,0,1-4.83-3.72L28,30.93c-2.81-3.65-3.42-8-1.52-11.43s6.07-5.31,10.8-5.06l1.16.13a17.5,17.5,0,0,1,5.9,1.82,16.7,16.7,0,0,1,4.8,3.71C52.52,23.9,53.38,28.7,51.33,32.34Zm1.93-21.15-3.17,5.64a20.55,20.55,0,0,0-4.27-2.93l-.07,0,0,0-.29-.14-.24-.12a20.58,20.58,0,0,0-4.25-1.51L44.1,6.45a5.14,5.14,0,0,1,6.9-2A4.88,4.88,0,0,1,53.27,11.18Zm17.67.49a1.55,1.55,0,0,1,2.12,0,1.4,1.4,0,0,1,0,2,9.78,9.78,0,0,0,0,14.24,1.4,1.4,0,0,1,0,2,1.55,1.55,0,0,1-2.12,0,13,13,0,0,1-2.15-2.68A12.56,12.56,0,0,1,70.94,11.67ZM66.68,34a18.78,18.78,0,0,1-3.1-3.87A18.15,18.15,0,0,1,66.69,7.6a1.55,1.55,0,0,1,2.12,0,1.4,1.4,0,0,1,0,2A15.37,15.37,0,0,0,68.8,32a1.4,1.4,0,0,1,0,2A1.55,1.55,0,0,1,66.68,34ZM9.21,37.43a13,13,0,0,1-2.15,2.68,1.55,1.55,0,0,1-2.12,0,1.4,1.4,0,0,1,0-2A9.78,9.78,0,0,0,5,23.83a1.4,1.4,0,0,1,0-2,1.55,1.55,0,0,1,2.12,0A12.56,12.56,0,0,1,9.21,37.43Zm0,6.75a1.4,1.4,0,0,1,0-2,15.37,15.37,0,0,0,0-22.38,1.4,1.4,0,0,1,0-2,1.55,1.55,0,0,1,2.12,0,18.15,18.15,0,0,1,3.07,22.58,18.78,18.78,0,0,1-3.11,3.86A1.55,1.55,0,0,1,9.18,44.18Z"/></svg>