<svg id="Actual_Colors" data-name="Actual Colors" xmlns="http://www.w3.org/2000/svg" viewBox="0 0 100 60"><defs><style>.cls-1{fill:#fff;}</style></defs><title>Xbox_Icons_All</title><path class="cls-1" d="M11,44.6Q11,30,11,15.4a1,1,0,0,0,.09-.18A2.85,2.85,0,0,1,13.31,13l.26-.08H86.46l.15,0A2.83,2.83,0,0,1,89,15.86V30.7q0,6.75,0,13.49a2.48,2.48,0,0,1,0,.53A2.83,2.83,0,0,1,86.75,47l-.47.1H13.76l-.17,0a2.9,2.9,0,0,1-2.5-2.23A1.12,1.12,0,0,0,11,44.6ZM85.09,16.86H15V43.13H85.09Z"/><path class="cls-1" d="M18.84,20.74H81.2V32.42H18.86C18.81,32.26,18.79,21.17,18.84,20.74Zm3.9,7.77c.39,0,54.36,0,54.54,0,0-.32,0-3.67,0-3.85H22.74Z"/></svg>